<svg xmlns="http://www.w3.org/2000/svg" width="270" height="238" viewBox="0 0 270 238" fill="none">
<path d="M73.3109 71.3837L39.3351 105.414C34.9515 109.798 32.4888 115.744 32.4888 121.943C32.4888 128.143 34.9515 134.089 39.3351 138.473L99.8439 198.892L110.498 188.245L49.9894 127.811C48.436 126.252 47.5639 124.141 47.5639 121.94C47.5639 119.739 48.436 117.628 49.9894 116.069L83.9652 82.0311C84.387 81.6133 84.9567 81.379 85.5503 81.379C86.144 81.379 86.7136 81.6133 87.1355 82.0311L155.457 150.263C155.664 150.47 155.828 150.716 155.94 150.986C156.052 151.256 156.11 151.546 156.11 151.838C156.11 152.131 156.052 152.421 155.94 152.691C155.828 152.961 155.664 153.206 155.457 153.413L87.2176 221.735C87.0108 221.943 86.7649 222.108 86.494 222.22C86.2232 222.333 85.9327 222.391 85.6393 222.391C85.346 222.391 85.0555 222.333 84.7846 222.22C84.5138 222.108 84.2679 221.943 84.0611 221.735L15.726 153.516C15.3095 153.098 15.0757 152.531 15.0757 151.941C15.0757 151.351 15.3095 150.785 15.726 150.366L28.9137 137.158C26.2296 133.803 23.7783 124.997 26.1063 118.67L5.06485 139.719C1.82185 142.962 0 147.361 0 151.948C0 156.535 1.82185 160.933 5.06485 164.177L73.3863 232.43C76.631 235.673 81.031 237.495 85.6188 237.495C90.2066 237.495 94.6066 235.673 97.8513 232.43L166.091 164.088C167.696 162.482 168.97 160.577 169.839 158.479C170.708 156.381 171.155 154.133 171.155 151.862C171.155 149.592 170.708 147.343 169.839 145.246C168.97 143.148 167.696 141.242 166.091 139.637L97.7555 71.3974C96.1519 69.7903 94.2474 68.515 92.1507 67.6445C90.054 66.774 87.8063 66.3252 85.536 66.324C83.2658 66.3227 81.0176 66.7689 78.9199 67.6371C76.8223 68.5053 74.9163 69.7784 73.3109 71.3837Z" fill="white"/>
<path d="M200.24 173.658L153.836 220.109C153.067 220.881 152.152 221.492 151.146 221.91C150.14 222.327 149.061 222.542 147.971 222.542C146.882 222.542 145.803 222.327 144.797 221.91C143.791 221.492 142.876 220.881 142.107 220.109L130.624 208.702L119.983 219.356L131.425 230.784C133.595 232.956 136.172 234.678 139.008 235.853C141.844 237.028 144.884 237.633 147.954 237.633C151.024 237.633 154.064 237.028 156.9 235.853C159.736 234.678 162.313 232.956 164.483 230.784L217.453 177.705C210.278 179.074 203.951 177.362 200.24 173.658Z" fill="white"/>
<path d="M228.887 166.252L262.862 132.221C265.034 130.051 266.756 127.474 267.932 124.638C269.107 121.802 269.712 118.762 269.712 115.692C269.712 112.622 269.107 109.582 267.932 106.746C266.756 103.91 265.034 101.333 262.862 99.163L202.354 38.7432L191.699 49.3906L252.208 109.824C253.762 111.383 254.634 113.495 254.634 115.696C254.634 117.897 253.762 120.008 252.208 121.567L218.232 155.605C217.811 156.022 217.241 156.257 216.647 156.257C216.054 156.257 215.484 156.022 215.062 155.605L146.741 87.3721C146.534 87.1654 146.369 86.9199 146.257 86.6497C146.145 86.3795 146.088 86.0898 146.088 85.7973C146.088 85.5047 146.145 85.215 146.257 84.9448C146.369 84.6746 146.534 84.4291 146.741 84.2224L214.98 15.9009C215.187 15.6929 215.433 15.5278 215.704 15.4151C215.974 15.3024 216.265 15.2444 216.558 15.2444C216.852 15.2444 217.142 15.3024 217.413 15.4151C217.684 15.5278 217.93 15.6929 218.136 15.9009L286.458 84.1402C286.874 84.5574 287.108 85.1225 287.108 85.7117C287.108 86.3008 286.874 86.8659 286.458 87.2831L273.27 100.491C275.954 103.847 278.406 112.652 276.078 118.979L297.126 97.8963C300.369 94.6527 302.191 90.2539 302.191 85.6672C302.191 81.0805 300.369 76.6816 297.126 73.438L228.798 5.20559C225.553 1.96216 221.153 0.140137 216.565 0.140137C211.977 0.140137 207.577 1.96216 204.333 5.20559L136.093 73.5476C134.488 75.1531 133.214 77.0591 132.345 79.1568C131.476 81.2544 131.029 83.5028 131.029 85.7733C131.029 88.0438 131.476 90.2921 132.345 92.3898C133.214 94.4875 134.488 96.3935 136.093 97.999L204.428 166.238C206.032 167.847 207.938 169.124 210.036 169.996C212.133 170.868 214.383 171.317 216.655 171.319C218.927 171.32 221.176 170.873 223.275 170.004C225.374 169.134 227.281 167.859 228.887 166.252Z" fill="white"/>
<path d="M101.948 63.9714L148.358 17.52C149.128 16.7488 150.042 16.1369 151.048 15.7195C152.054 15.302 153.133 15.0871 154.223 15.0871C155.312 15.0871 156.391 15.302 157.397 15.7195C158.404 16.1369 159.318 16.7488 160.087 17.52L171.543 28.9411L182.183 18.2869L170.762 6.85203C168.592 4.67983 166.016 2.95661 163.18 1.78088C160.343 0.605162 157.303 0 154.233 0C151.163 0 148.123 0.605162 145.286 1.78088C142.45 2.95661 139.874 4.67983 137.704 6.85203L84.7339 59.9316C91.9098 58.5621 98.2366 60.2671 101.948 63.9714Z" fill="white"/>
</svg>