<svg xmlns="http://www.w3.org/2000/svg" width="31" height="31" viewBox="0 0 31 31" fill="none">
<path d="M8.16286 11.0259L4.95817 14.2357C4.54469 14.6492 4.31241 15.2101 4.31241 15.7948C4.31241 16.3796 4.54469 16.9404 4.95817 17.3539L10.6655 23.0528L11.6705 22.0486L5.96311 16.3483C5.81659 16.2012 5.73433 16.0021 5.73433 15.7945C5.73433 15.5869 5.81659 15.3878 5.96311 15.2407L9.1678 12.0302C9.20759 11.9908 9.26132 11.9687 9.31732 11.9687C9.37331 11.9687 9.42704 11.9908 9.46683 12.0302L15.9111 18.466C15.9306 18.4855 15.9461 18.5087 15.9567 18.5342C15.9672 18.5597 15.9727 18.587 15.9727 18.6146C15.9727 18.6422 15.9672 18.6695 15.9567 18.695C15.9461 18.7205 15.9306 18.7436 15.9111 18.7631L9.47458 25.2074C9.45507 25.227 9.43188 25.2426 9.40633 25.2532C9.38078 25.2638 9.35338 25.2693 9.32571 25.2693C9.29804 25.2693 9.27064 25.2638 9.24509 25.2532C9.21955 25.2426 9.19635 25.227 9.17684 25.2074L2.73129 18.7728C2.69201 18.7334 2.66996 18.68 2.66996 18.6243C2.66996 18.5686 2.69201 18.5152 2.73129 18.4757L3.97519 17.2299C3.72202 16.9134 3.49081 16.0829 3.7104 15.4861L1.72571 17.4714C1.41982 17.7774 1.24798 18.1923 1.24798 18.6249C1.24798 19.0576 1.41982 19.4725 1.72571 19.7784L8.16997 26.2162C8.47602 26.5221 8.89104 26.694 9.32377 26.694C9.75651 26.694 10.1715 26.5221 10.4776 26.2162L16.9141 19.77C17.0655 19.6186 17.1857 19.4388 17.2676 19.2409C17.3496 19.0431 17.3918 18.831 17.3918 18.6168C17.3918 18.4027 17.3496 18.1906 17.2676 17.9928C17.1857 17.7949 17.0655 17.6151 16.9141 17.4637L10.4685 11.0272C10.3173 10.8756 10.1376 10.7553 9.93988 10.6732C9.74211 10.5911 9.5301 10.5488 9.31597 10.5486C9.10183 10.5485 8.88978 10.5906 8.69192 10.6725C8.49406 10.7544 8.31428 10.8745 8.16286 11.0259Z" fill="white"/>
<path d="M20.1356 20.6729L15.7587 25.0543C15.6861 25.1271 15.5999 25.1848 15.5049 25.2242C15.41 25.2635 15.3083 25.2838 15.2055 25.2838C15.1027 25.2838 15.001 25.2635 14.9061 25.2242C14.8111 25.1848 14.7249 25.1271 14.6523 25.0543L13.5692 23.9784L12.5656 24.9833L13.6448 26.0612C13.8495 26.266 14.0926 26.4285 14.3601 26.5393C14.6276 26.6502 14.9143 26.7072 15.2039 26.7072C15.4935 26.7072 15.7802 26.6502 16.0477 26.5393C16.3152 26.4285 16.5583 26.266 16.763 26.0612L21.7592 21.0546C21.0824 21.1838 20.4856 21.0223 20.1356 20.6729Z" fill="white"/>
<path d="M22.8371 19.9741L26.0418 16.7642C26.2466 16.5595 26.4091 16.3165 26.52 16.049C26.6308 15.7814 26.6879 15.4947 26.6879 15.2051C26.6879 14.9156 26.6308 14.6288 26.52 14.3613C26.4091 14.0938 26.2466 13.8508 26.0418 13.6461L20.3345 7.94712L19.3295 8.95141L25.0369 14.6517C25.1834 14.7987 25.2657 14.9979 25.2657 15.2055C25.2657 15.4131 25.1834 15.6122 25.0369 15.7593L21.8322 18.9698C21.7924 19.0092 21.7387 19.0313 21.6827 19.0313C21.6267 19.0313 21.573 19.0092 21.5332 18.9698L15.0889 12.5339C15.0694 12.5144 15.0539 12.4913 15.0433 12.4658C15.0328 12.4403 15.0273 12.413 15.0273 12.3854C15.0273 12.3578 15.0328 12.3305 15.0433 12.305C15.0539 12.2795 15.0694 12.2563 15.0889 12.2368L21.5254 5.79257C21.5449 5.77294 21.5681 5.75737 21.5937 5.74674C21.6192 5.73611 21.6466 5.73064 21.6743 5.73064C21.702 5.73064 21.7294 5.73611 21.7549 5.74674C21.7805 5.75737 21.8037 5.77294 21.8232 5.79257L28.2674 12.2291C28.3067 12.2684 28.3287 12.3217 28.3287 12.3773C28.3287 12.4329 28.3067 12.4862 28.2674 12.5255L27.0235 13.7714C27.2767 14.0878 27.5079 14.9184 27.2883 15.5152L29.2736 13.5266C29.5795 13.2206 29.7514 12.8057 29.7514 12.3731C29.7514 11.9405 29.5795 11.5256 29.2736 11.2196L22.8287 4.78376C22.5227 4.47783 22.1077 4.30597 21.6749 4.30597C21.2422 4.30597 20.8272 4.47783 20.5211 4.78376L14.0846 11.23C13.9332 11.3814 13.8131 11.5612 13.7311 11.759C13.6491 11.9569 13.6069 12.169 13.6069 12.3831C13.6069 12.5973 13.6491 12.8093 13.7311 13.0072C13.8131 13.2051 13.9332 13.3848 14.0846 13.5363L20.5302 19.9728C20.6814 20.1246 20.8612 20.245 21.0591 20.3272C21.2569 20.4095 21.4691 20.4519 21.6834 20.452C21.8977 20.4521 22.1099 20.4099 22.3079 20.3279C22.5058 20.2459 22.6857 20.1257 22.8371 19.9741Z" fill="white"/>
<path d="M10.8644 10.3271L15.242 5.94568C15.3146 5.87294 15.4008 5.81523 15.4957 5.77586C15.5906 5.73648 15.6924 5.71621 15.7952 5.71621C15.8979 5.71621 15.9997 5.73648 16.0946 5.77586C16.1895 5.81523 16.2757 5.87294 16.3483 5.94568L17.4288 7.02295L18.4325 6.01802L17.3552 4.93945C17.1505 4.73457 16.9075 4.57203 16.64 4.46113C16.3725 4.35023 16.0857 4.29315 15.7961 4.29315C15.5065 4.29315 15.2198 4.35023 14.9523 4.46113C14.6847 4.57203 14.4417 4.73457 14.237 4.93945L9.24078 9.94606C9.91762 9.81689 10.5144 9.9777 10.8644 10.3271Z" fill="white"/>
</svg>