<svg width="30" height="19" viewBox="0 0 30 19" fill="none" xmlns="http://www.w3.org/2000/svg">
<path d="M29.3749 6.25001C29.7201 6.25001 29.9999 5.97016 29.9999 5.62499V0.625018C29.9999 0.279843 29.7201 0 29.3749 0H0.625018C0.279843 0 0 0.279843 0 0.625018V5.62499C0 5.97016 0.279843 6.25001 0.625018 6.25001C2.35089 6.25001 3.74999 7.64911 3.74999 9.37498C3.74999 11.1009 2.35089 12.5 0.625018 12.5C0.279843 12.5 0 12.7798 0 13.125V18.1249C0 18.4701 0.279843 18.75 0.625018 18.75H29.375C29.7202 18.75 30 18.4701 30 18.1249V13.125C30 12.7798 29.7202 12.5 29.375 12.5C27.649 12.5 26.25 11.1009 26.25 9.37498C26.25 7.64911 27.649 6.25001 29.3749 6.25001Z" fill="#FFC107"/>
<path d="M8.12502 11.25C7.77984 11.25 7.5 10.9701 7.5 10.625V8.12496C7.5 7.77978 7.77984 7.49994 8.12502 7.49994C8.47019 7.49994 8.75004 7.77978 8.75004 8.12496V10.625C8.74998 10.9701 8.47019 11.25 8.12502 11.25Z" fill="#FAFAFA"/>
<path d="M8.12502 6.25002C7.77984 6.25002 7.5 5.97018 7.5 5.625V3.12499C7.5 2.77981 7.77984 2.49997 8.12502 2.49997C8.47019 2.49997 8.75004 2.77981 8.75004 3.12499V5.625C8.74998 5.97018 8.47019 6.25002 8.12502 6.25002Z" fill="#FAFAFA"/>
<path d="M8.12502 16.25C7.77984 16.25 7.5 15.9701 7.5 15.6249V13.125C7.5 12.7798 7.77984 12.5 8.12502 12.5C8.47019 12.5 8.75004 12.7798 8.75004 13.125V15.625C8.74998 15.9702 8.47019 16.25 8.12502 16.25Z" fill="#FAFAFA"/>
<path d="M21.875 11.25C21.5298 11.25 21.25 10.9701 21.25 10.625V8.12496C21.25 7.77978 21.5298 7.49994 21.875 7.49994C22.2202 7.49994 22.5 7.77984 22.5 8.12502V10.625C22.5 10.9701 22.2202 11.25 21.875 11.25Z" fill="#FAFAFA"/>
<path d="M21.875 6.25002C21.5298 6.25002 21.25 5.97018 21.25 5.625V3.12499C21.25 2.77981 21.5298 2.49997 21.875 2.49997C22.2202 2.49997 22.5 2.77981 22.5 3.12499V5.625C22.5 5.97018 22.2202 6.25002 21.875 6.25002Z" fill="#FAFAFA"/>
<path d="M21.875 16.25C21.5298 16.25 21.25 15.9701 21.25 15.6249V13.125C21.25 12.7798 21.5298 12.5 21.875 12.5C22.2202 12.5 22.5 12.7798 22.5 13.125V15.625C22.5 15.9702 22.2202 16.25 21.875 16.25Z" fill="#FAFAFA"/>
</svg>
