<svg width="17" height="17" viewBox="0 0 17 17" fill="none" xmlns="http://www.w3.org/2000/svg">
<g clip-path="url(#clip0_3196_104)">
<path d="M3.22412 11.7242C3.22412 14.638 5.58622 17 8.5 17C11.4138 17 13.7759 14.638 13.7759 11.7242C13.7759 8.79312 12.3104 6.44828 13.2936 4.39656C13.2936 4.39656 11.7241 4.68968 10.8448 7.03448C10.8448 7.03448 7.9138 4.10344 9.13839 0C9.13839 0 6.15519 1.1724 6.46717 4.98276C6.73472 8.25015 6.15519 8.79312 6.15519 8.79312C6.15519 6.1552 4.09278 4.98276 4.09278 4.98276C4.68964 8.20692 3.22412 9.08624 3.22412 11.7242Z" fill="#FFB446"/>
<path d="M12.3083 12.974C12.3083 15.1685 10.6139 17.0419 8.41977 16.9995C6.35494 16.9598 4.81866 15.3887 4.98285 13.3365C5.05613 12.4206 5.75223 10.9368 6.88801 9.43461L7.64521 9.89258C7.62074 8.03629 8.50006 5.56934 8.50006 5.56934C9.07766 8.16858 12.3083 8.8423 12.3083 12.974Z" fill="#FFDC64"/>
<path d="M7.03447 11.1375C6.74135 12.8961 6.15515 13.5364 6.15515 14.6547C6.15515 15.8272 7.205 16.9996 8.49999 16.9996C9.80434 16.9996 10.8484 15.9339 10.8448 14.6295C10.835 11.1263 8.79311 9.37891 8.79311 9.37891C9.08622 11.1375 8.20691 12.0168 8.20691 12.0168C7.84061 11.4674 7.03447 11.1375 7.03447 11.1375Z" fill="white"/>
</g>
<defs>
<clipPath id="clip0_3196_104">
<rect width="17" height="17" fill="white"/>
</clipPath>
</defs>
</svg>
